<svg xmlns="http://www.w3.org/2000/svg" width="206.202" height="128.898" viewBox="0 0 206.202 128.898">
  <g id="behance" transform="translate(0 -4.5)">
    <path id="Path_34" data-name="Path 34" d="M106.238,94.273c0-15.88-7.553-27.619-23.159-32.018C94.465,56.833,100.4,48.618,100.4,35.84c0-25.2-18.836-31.34-40.569-31.34H0V131H61.51c23.064,0,44.728-11.025,44.728-36.727ZM27.894,26.095H54.069c10.063,0,19.12,2.819,19.12,14.454,0,10.742-7.046,15.064-17.015,15.064H27.894Zm-.009,83.423V74.681h30.4c12.28,0,20.048,5.1,20.048,18.063,0,12.778-9.272,16.774-20.624,16.774Z" transform="translate(0 0)" fill="#fff"/>
    <path id="Path_35" data-name="Path 35" d="M60.346,104.833c21.947,0,36.16-9.856,43-30.807H81.073c-2.4,7.82-12.28,11.953-19.945,11.953-14.789,0-22.557-8.636-22.557-23.313h66.28c2.1-29.372-14.265-54.4-44.513-54.4-28.005,0-47.014,20.985-47.014,48.474C13.324,85.266,31.335,104.833,60.346,104.833ZM59.556,27.27c12.675,0,19.051,7.425,20.117,19.567H38.605C39.439,34.8,47.456,27.27,59.556,27.27Z" transform="translate(101.172 28.566)" fill="#fff"/>
    <path id="Path_36" data-name="Path 36" d="M15.667,5.273H67.123v12.46H15.667Z" transform="translate(118.963 5.87)" fill="#fff"/>
  </g>
</svg>
