<svg xmlns="http://www.w3.org/2000/svg" width="129.568" height="129.592" viewBox="0 0 129.568 129.592">
  <g id="instagram" transform="translate(-0.449)">
    <path id="Path_37" data-name="Path 37" d="M129.688,38.1a47.353,47.353,0,0,0-3.012-15.722A33.2,33.2,0,0,0,107.713,3.418,47.475,47.475,0,0,0,91.992.405C85.055.076,82.853,0,65.258,0S45.461.076,38.55.38A47.367,47.367,0,0,0,22.829,3.392a31.62,31.62,0,0,0-11.494,7.494A31.906,31.906,0,0,0,3.867,22.354,47.481,47.481,0,0,0,.855,38.075C.525,45.012.449,47.214.449,64.809s.076,19.8.38,26.708a47.351,47.351,0,0,0,3.013,15.722A33.192,33.192,0,0,0,22.8,126.2a47.482,47.482,0,0,0,15.722,3.012c6.91.3,9.114.38,26.708.38s19.8-.075,26.708-.38a47.341,47.341,0,0,0,15.721-3.012,33.147,33.147,0,0,0,18.962-18.961,47.513,47.513,0,0,0,3.012-15.722c.3-6.911.38-9.114.38-26.708S129.991,45.012,129.688,38.1Zm-11.67,52.91a35.52,35.52,0,0,1-2.228,12.025,21.5,21.5,0,0,1-12.3,12.3,35.646,35.646,0,0,1-12.025,2.227c-6.835.3-8.885.38-26.176.38s-19.367-.075-26.177-.38a35.5,35.5,0,0,1-12.025-2.227,19.941,19.941,0,0,1-7.443-4.836,20.148,20.148,0,0,1-4.836-7.443,35.652,35.652,0,0,1-2.227-12.025c-.3-6.835-.38-8.886-.38-26.177s.075-19.367.38-26.176A35.5,35.5,0,0,1,14.8,26.658a19.7,19.7,0,0,1,4.861-7.444,20.117,20.117,0,0,1,7.443-4.835,35.671,35.671,0,0,1,12.025-2.228c6.835-.3,8.886-.38,26.176-.38,17.317,0,19.367.076,26.177.38a35.52,35.52,0,0,1,12.025,2.228,19.927,19.927,0,0,1,7.443,4.835,20.143,20.143,0,0,1,4.836,7.444,35.665,35.665,0,0,1,2.228,12.025c.3,6.835.38,8.885.38,26.176S118.321,84.176,118.017,91.011Zm0,0" transform="translate(0 0)" fill="#fff"/>
    <path id="Path_38" data-name="Path 38" d="M158.24,124.5a33.291,33.291,0,1,0,33.291,33.291A33.3,33.3,0,0,0,158.24,124.5Zm0,54.885a21.595,21.595,0,1,1,21.595-21.595A21.6,21.6,0,0,1,158.24,179.385Zm0,0" transform="translate(-92.982 -92.982)" fill="#fff"/>
    <path id="Path_39" data-name="Path 39" d="M377.994,96.373a7.772,7.772,0,1,1-7.773-7.772A7.773,7.773,0,0,1,377.994,96.373Zm0,0" transform="translate(-270.356 -66.171)" fill="#fff"/>
  </g>
</svg>
