<svg id="instagram-3" xmlns="http://www.w3.org/2000/svg" width="512" height="512" viewBox="0 0 512 512">
  <path id="Path_1" data-name="Path 1" d="M373.406,0H138.594C62.172,0,0,62.172,0,138.594V373.41C0,449.828,62.172,512,138.594,512H373.41C449.828,512,512,449.828,512,373.41V138.594C512,62.172,449.828,0,373.406,0ZM256,396c-77.2,0-140-62.8-140-140s62.8-140,140-140,140,62.8,140,140S333.2,396,256,396ZM399.344,149.02a41.369,41.369,0,1,1,41.371-41.367A41.411,41.411,0,0,1,399.344,149.02Zm0,0" fill="#fff"/>
  <path id="Path_2" data-name="Path 2" d="M256,146.02A109.98,109.98,0,1,0,365.98,256,110.106,110.106,0,0,0,256,146.02Zm0,0" fill="#fff"/>
  <path id="Path_3" data-name="Path 3" d="M399.344,96.3A11.352,11.352,0,1,0,410.7,107.652,11.366,11.366,0,0,0,399.344,96.3Zm0,0" fill="#fff"/>
</svg>
