<svg xmlns="http://www.w3.org/2000/svg" width="135.377" height="129.398" viewBox="0 0 135.377 129.398">
  <g id="linkedin" transform="translate(0 0.668)">
    <path id="Path_40" data-name="Path 40" d="M16.417-.668C6.49-.668,0,5.85,0,14.418,0,22.8,6.3,29.5,16.036,29.5h.188c10.121,0,16.42-6.7,16.42-15.083C32.455,5.85,26.346-.668,16.417-.668Zm0,0" transform="translate(0)" fill="#fff"/>
    <path id="Path_41" data-name="Path 41" d="M8.109,198.313H37.13v87.309H8.109Zm0,0" transform="translate(-6.394 -156.891)" fill="#fff"/>
    <path id="Path_42" data-name="Path 42" d="M276.389,188.625c-15.655,0-26.153,14.711-26.153,14.711V190.674H221.215v87.309h29.02V229.226a19.888,19.888,0,0,1,.956-7.083c2.1-5.212,6.872-10.612,14.889-10.612,10.5,0,14.7,8.007,14.7,19.744v46.708H309.8V227.922C309.8,201.1,295.481,188.625,276.389,188.625Zm0,0" transform="translate(-174.422 -149.253)" fill="#fff"/>
  </g>
</svg>
