<svg xmlns="http://www.w3.org/2000/svg" width="24" height="21" viewBox="0 0 24 21">
  <path id="vimeo" d="M20.5,1.5c-3.328-.121-5.576,1.787-6.762,5.694A4.312,4.312,0,0,1,15.512,6.8c1.219,0,1.758.7,1.614,2.082a9.519,9.519,0,0,1-1.612,3.664Q14,14.957,13.249,14.959c-1.522,0-2.437-7.284-2.747-9.273Q9.856,1.538,7.055,1.809C5.341,1.972,2.35,5.058,0,7.15L1.129,8.622A7.4,7.4,0,0,1,3.01,7.478c1.871,0,2.777,6.367,4.23,11.1.975,2.613,2.144,3.92,3.553,3.92q3.4,0,8.29-6.434,4.733-6.161,4.894-9.7l.013-.01C24.124,3.186,22.969,1.566,20.5,1.5Z" transform="translate(0 -1.5)" fill="#fff"/>
</svg>
