<svg xmlns="http://www.w3.org/2000/svg" width="99.921" height="30.269" viewBox="0 0 99.921 30.269">
  <g id="blaa_u_payoff" transform="translate(-234.3 -199.85)" style="mix-blend-mode: difference;isolation: isolate">
    <path id="Path_25" data-name="Path 25" d="M353.55,231.64H340.6v4.316h4.316v17.269h4.316V235.956h4.319Z" transform="translate(-77.263 -23.106)" fill="#fff"/>
    <path id="Path_26" data-name="Path 26" d="M247.253,240.272h-8.637v-4.316h8.637V231.64H234.3v12.95h8.635v4.316H234.3v4.319h12.953Z" transform="translate(0 -23.106)" fill="#fff"/>
    <path id="Path_27" data-name="Path 27" d="M552.69,235.956h8.632v12.95h-4.316v4.319h8.635V231.64H552.69Z" transform="translate(-231.419 -23.106)" fill="#fff"/>
    <path id="Path_28" data-name="Path 28" d="M353.55,231.64H340.6v4.316h4.316v17.269h4.316V235.956h4.319Z" transform="translate(-77.263 -23.106)" fill="#fff"/>
    <path id="Path_29" data-name="Path 29" d="M552.69,231.64v4.316h8.632v12.95h-4.316v4.319h8.635V231.64Z" transform="translate(-231.419 -23.106)" fill="#fff"/>
    <path id="Path_30" data-name="Path 30" d="M459.61,231.64H446.66v21.585H459.61Zm-4.319,17.266h-4.319v-12.95h4.319Z" transform="translate(-154.352 -23.106)" fill="#fff"/>
    <rect id="Rectangle_8" data-name="Rectangle 8" width="4.316" height="4.319" transform="translate(296.569 199.85)" fill="#fff"/>
    <rect id="Rectangle_9" data-name="Rectangle 9" width="4.316" height="4.319" transform="translate(305.201 199.85)" fill="#fff"/>
  </g>
</svg>
